# xmcd
#
# Track frame offsets:
#	150
#	17502
#	30905
#
# Disc length: 715 seconds
#
# Revision: 1
# Processed by: cddbd v1.5.1PL0 Copyright (c) Steve Scherf et al.
# Submitted via: CDex 1.50Beta5
#
DISCID=1102c903
DTITLE=都市レコード - 恋にむせて
DYEAR=2003
DGENRE=Pop
TTITLE0=恋にむせて
TTITLE1=日、暮れ行く
TTITLE2=思い出
EXTD=
EXTT0=
EXTT1=
EXTT2=
PLAYORDER=
